<?xml version="1.0" standalone="no"?>
<!DOCTYPE svg PUBLIC "-//W3C//DTD SVG 20010904//EN"
 "http://www.w3.org/TR/2001/REC-SVG-20010904/DTD/svg10.dtd">
<svg version="1.0" xmlns="http://www.w3.org/2000/svg"
 width="700.000000pt" height="700.000000pt" viewBox="0 0 700.000000 700.000000"
 preserveAspectRatio="xMidYMid meet">
<metadata>
Created by potrace 1.14, written by Peter Selinger 2001-2017
</metadata>
<g transform="translate(0.000000,700.000000) scale(0.100000,-0.100000)"
fill="#000000" stroke="none">
<path d="M2777 6595 c-1 -2 -51 -5 -112 -9 -338 -18 -653 -101 -946 -247 -321
-159 -691 -505 -932 -871 -208 -315 -352 -678 -401 -1013 -4 -23 -8 -51 -11
-64 -21 -108 -28 -493 -12 -641 61 -563 256 -1121 595 -1695 72 -122 253 -320
457 -500 44 -38 85 -74 91 -80 6 -5 33 -28 60 -51 144 -121 181 -151 205 -169
15 -11 71 -54 125 -94 55 -41 101 -79 102 -83 2 -4 8 -8 13 -8 5 0 46 -27 91
-59 262 -186 546 -328 698 -347 l55 -6 -41 43 c-22 24 -53 58 -68 74 -39 43
-186 266 -237 360 -100 184 -222 458 -298 665 -23 63 -48 129 -55 145 -38 89
-172 514 -250 790 -20 72 -40 144 -45 160 -33 108 -12 75 38 -60 190 -516 425
-1011 621 -1310 22 -33 43 -67 47 -75 12 -26 144 -213 211 -300 206 -268 440
-494 662 -641 94 -63 240 -143 240 -132 0 15 -78 156 -212 380 -238 399 -361
663 -423 908 -25 100 -29 118 -41 230 -19 165 1 342 57 495 45 120 204 398
390 677 139 208 606 879 646 928 5 6 44 66 88 135 147 233 243 439 301 650 13
47 23 85 23 85 0 0 3 28 7 63 6 54 9 62 28 62 29 -1 56 -26 99 -93 108 -168
205 -427 232 -617 4 -24 8 -47 10 -50 5 -9 18 -211 18 -280 0 -77 -12 -265
-18 -294 -2 -12 -7 -43 -10 -70 -3 -27 -8 -53 -11 -58 -3 -4 -8 -52 -11 -106
-5 -94 -4 -101 35 -212 75 -218 99 -355 100 -563 1 -336 -94 -683 -308 -1131
-85 -179 -152 -261 -264 -326 -95 -54 -180 -70 -346 -65 -80 3 -156 6 -170 9
-24 4 -93 11 -212 21 -85 8 -83 5 64 -93 166 -112 421 -214 618 -248 14 -2 45
-9 70 -14 203 -43 639 -56 905 -26 17 2 59 7 95 10 36 4 76 9 90 11 14 2 47 6
73 10 27 4 58 8 70 11 12 2 39 6 62 9 22 4 94 18 160 31 66 14 131 27 145 30
168 31 604 160 594 175 -3 5 -9 9 -15 9 -5 0 -28 9 -52 19 -23 11 -89 38 -147
61 -422 170 -551 240 -683 373 -81 82 -95 99 -134 159 -77 121 -140 282 -168
429 -2 11 -6 28 -9 37 -3 9 -8 42 -12 72 -3 30 -10 82 -14 115 -8 69 -6 396 4
470 6 44 12 87 32 235 3 19 12 71 19 115 8 44 17 94 20 110 7 45 15 83 30 160
8 39 16 87 20 109 3 21 7 41 9 45 3 3 7 27 11 51 3 25 8 52 10 60 2 8 7 35 10
60 3 25 8 52 10 60 20 79 24 335 7 448 -7 48 -14 98 -16 112 -2 14 -13 66 -25
115 -102 444 -317 841 -637 1175 -94 97 -248 235 -349 310 -33 25 -62 48 -65
51 -18 21 -278 186 -402 254 -257 143 -606 259 -873 290 -33 4 -69 9 -80 11
-29 6 -353 22 -358 19z"/>
</g>
</svg>
